#!OML:ASF G:\JayActor3\Patient Classification 1\Patient 1\Session 5\male.ASF
:FULLY-SPECIFIED
:DEGREES
833
root 29.1087 17.8881 -6.58198 -650.32 -92.8335 671.791
lowerback 24.2708 -1.72861 3.26718
upperback 5.85813 -1.94361 -0.919662
thorax -7.1609 -1.15412 -2.27916
lowerneck 6.17795 1.63717 3.79725
upperneck -19.918 2.14134 -1.57893
head -7.03556 0.720547 -1.29364
rclavicle 1.97791e-014 -3.10601e-015
rhumerus -29.0957 -2.65609 -88.9934
rradius 32.9948
rwrist 0.320242
rhand -21.65 -9.35815
rfingers 7.12502
rthumb 4.74677 -39.285
lclavicle 1.97791e-014 -3.10601e-015
lhumerus -31.3305 -2.76183 85.4793
lradius 30.9528
lwrist 21.485
lhand -20.0683 9.84045
lfingers 7.12502
lthumb 6.27391 39.7275
rfemur -45.2035 -2.67234 23.3013
rtibia 32.6636
rfoot 16.6639 -9.95151
rtoes 28.6008
lfemur -42.7226 3.81555 -23.5701
ltibia 57.7138
lfoot 15.4064 -2.5767
ltoes -15.8738
834
root 29.2108 17.8801 -6.57768 -649.537 -92.8641 670.954
lowerback 24.2602 -1.741 3.29601
upperback 5.86993 -1.95232 -0.903599
thorax -7.14316 -1.15851 -2.27581
lowerneck 6.20034 1.64441 3.79082
upperneck -19.9184 2.14429 -1.62069
head -7.03894 0.726476 -1.3066
rclavicle 9.56651e-015 4.32357e-015
rhumerus -29.0986 -2.66649 -88.9253
rradius 33.0142
rwrist 0.34081
rhand -21.6515 -9.33362
rfingers 7.12502
rthumb 4.74533 -39.2605
lclavicle 9.56651e-015 4.32357e-015
lhumerus -31.3921 -2.76588 85.5052
lradius 31.0675
lwrist 21.5791
lhand -20.0727 9.80453
lfingers 7.12502
lthumb 6.26964 39.6917
rfemur -45.3897 -2.79012 23.2208
rtibia 32.3897
rfoot 17.0764 -10.2046
rtoes 29.1195
lfemur -42.0535 4.03065 -23.7048
ltibia 58.0249
lfoot 16.2362 -3.59779
ltoes -15.9496
835
root 29.3133 17.8689 -6.57279 -648.9 -92.8759 670.255
lowerback 24.2617 -1.75716 3.34862
upperback 5.87872 -1.95934 -0.883777
thorax -7.13528 -1.16254 -2.28221
lowerneck 6.22266 1.64394 3.78489
upperneck -19.9314 2.13828 -1.65011
head -7.04688 0.726473 -1.31507
rclavicle 7.10655e-015 -1.11319e-014
rhumerus -29.1111 -2.70421 -88.8533
rradius 33.0389
rwrist 0.363337
rhand -21.6674 -9.30907
rfingers 7.12502
rthumb 4.72996 -39.2363
lclavicle 7.10655e-015 -1.11319e-014
lhumerus -31.4566 -2.78559 85.5407
lradius 31.1769
lwrist 21.6624
lhand -20.0521 9.75675
lfingers 7.12502
lthumb 6.28949 39.6434
rfemur -45.5902 -2.8801 23.1502
rtibia 32.1627
rfoot 17.4514 -10.4488
rtoes 29.6106
lfemur -41.3753 4.25221 -23.8316
ltibia 58.213
lfoot 16.9477 -4.60238
ltoes -15.7125
836
root 29.4164 17.8548 -6.5675 -648.387 -92.8764 669.669
lowerback 24.2711 -1.77544 3.40847
upperback 5.89069 -1.96718 -0.86068
thorax -7.12802 -1.16717 -2.28879
lowerneck 6.24199 1.64043 3.77685
upperneck -19.9565 2.12973 -1.66506
head -7.05853 0.723629 -1.31836
rclavicle -2.19657e-014 9.69075e-015
rhumerus -29.1214 -2.75116 -88.7819
rradius 33.0624
rwrist 0.381527
rhand -21.6881 -9.2913
rfingers 7.12502
rthumb 4.70992 -39.2189
lclavicle -2.19657e-014 9.69075e-015
lhumerus -31.5171 -2.81003 85.581
lradius 31.282
lwrist 21.7341
lhand -20.0224 9.7223
lfingers 7.12502
lthumb 6.31818 39.6081
rfemur -45.8056 -2.94387 23.0862
rtibia 31.9817
rfoot 17.8032 -10.6567
rtoes 29.9884
lfemur -40.6819 4.47358 -23.9569
ltibia 58.2718
lfoot 17.5374 -5.532
ltoes -15.1903
837
root 29.5201 17.838 -6.56215 -647.891 -92.8749 669.088
lowerback 24.2905 -1.79398 3.46369
upperback 5.90529 -1.97659 -0.838343
thorax -7.12291 -1.17261 -2.29291
lowerneck 6.25366 1.63429 3.77551
upperneck -19.9842 2.11916 -1.67227
head -7.06977 0.718398 -1.32003
rclavicle -9.74045e-015 -1.95803e-014
rhumerus -29.1298 -2.81046 -88.715
rradius 33.0817
rwrist 0.397678
rhand -21.7154 -9.27637
rfingers 7.12502
rthumb 4.68363 -39.2046
lclavicle -9.74045e-015 -1.95803e-014
lhumerus -31.5726 -2.84353 85.6233
lradius 31.3808
lwrist 21.7954
lhand -19.9889 9.69242
lfingers 7.12502
lthumb 6.35054 39.5772
rfemur -46.0353 -2.97785 23.0171
rtibia 31.8475
rfoot 18.1246 -10.8222
rtoes 30.2505
lfemur -39.9696 4.68605 -24.0886
ltibia 58.198
lfoot 18.0105 -6.34043
ltoes -14.5632
838
root 29.6246 17.819 -6.55697 -647.397 -92.8781 668.499
lowerback 24.3234 -1.8119 3.5046
upperback 5.91963 -1.98861 -0.818996
thorax -7.12494 -1.1793 -2.29101
lowerneck 6.25671 1.62958 3.77456
upperneck -20.0034 2.11293 -1.66573
head -7.07684 0.71415 -1.31747
rclavicle 4.67144e-015 8.79622e-015
rhumerus -29.1394 -2.87688 -88.6553
rradius 33.092
rwrist 0.422293
rhand -21.7357 -9.27459
rfingers 7.12502
rthumb 4.66398 -39.2033
lclavicle 4.67144e-015 8.79622e-015
lhumerus -31.6278 -2.88102 85.6642
lradius 31.4708
lwrist 21.8428
lhand -19.9612 9.69203
lfingers 7.12502
lthumb 6.37723 39.576
rfemur -46.2756 -2.97385 22.933
rtibia 31.7593
rfoot 18.3952 -10.9525
rtoes 30.422
lfemur -39.2351 4.88299 -24.2318
ltibia 57.9859
lfoot 18.3921 -7.03509
ltoes -14.0024
839
root 29.7298 17.7979 -6.55202 -646.826 -92.8927 667.817
lowerback 24.3642 -1.82901 3.5222
upperback 5.93621 -2.00558 -0.803497
thorax -7.12836 -1.18814 -2.27832
lowerneck 6.26044 1.62986 3.77191
upperneck -20.0195 2.11528 -1.65031
head -7.08293 0.713497 -1.31237
rclavicle -6.70898e-015 -3.51849e-014
rhumerus -29.146 -2.9433 -88.6048
rradius 33.09
rwrist 0.4541
rhand -21.7464 -9.27968
rfingers 7.12502
rthumb 4.65362 -39.2086
lclavicle -6.70898e-015 -3.51849e-014
lhumerus -31.679 -2.91979 85.7042
lradius 31.5489
lwrist 21.8785
lhand -19.9412 9.6892
lfingers 7.12502
lthumb 6.39657 39.5726
rfemur -46.5229 -2.93679 22.8283
rtibia 31.715
rfoot 18.6196 -11.0076
rtoes 30.4343
lfemur -38.4731 5.05176 -24.3898
ltibia 57.6339
lfoot 18.7117 -7.59399
ltoes -13.5271
840
root 29.8355 17.7747 -6.54724 -646.175 -92.9242 667.042
lowerback 24.4142 -1.84414 3.51582
upperback 5.95447 -2.02636 -0.794732
thorax -7.13446 -1.19862 -2.25792
lowerneck 6.26154 1.63481 3.76382
upperneck -20.0253 2.12563 -1.6244
head -7.08522 0.716503 -1.30347
rclavicle 1.49089e-016 -4.15957e-014
rhumerus -29.1502 -3.01109 -88.5636
rradius 33.074
rwrist 0.494834
rhand -21.7467 -9.28749
rfingers 7.12502
rthumb 4.65339 -39.2164
lclavicle 1.49089e-016 -4.15957e-014
lhumerus -31.7233 -2.96146 85.7438
lradius 31.6101
lwrist 21.904
lhand -19.9259 9.68004
lfingers 7.12502
lthumb 6.41135 39.563
rfemur -46.7721 -2.87635 22.704
rtibia 31.7106
rfoot 18.7916 -10.9843
rtoes 30.2993
lfemur -37.6816 5.1905 -24.5677
ltibia 57.1405
lfoot 18.9627 -8.05071
ltoes -13.3086
841
root 29.9418 17.7495 -6.54256 -645.469 -92.9667 666.198
lowerback 24.469 -1.85943 3.49126
upperback 5.97269 -2.05213 -0.791013
thorax -7.14306 -1.21132 -2.23098
lowerneck 6.27388 1.64396 3.75172
upperneck -20.0233 2.14434 -1.58833
head -7.08696 0.72337 -1.29132
rclavicle 4.02539e-015 -1.72943e-014
rhumerus -29.1579 -3.07227 -88.5342
rradius 33.045
rwrist 0.548138
rhand -21.7342 -9.29611
rfingers 7.12502
rthumb 4.66543 -39.2247
lclavicle 4.02539e-015 -1.72943e-014
lhumerus -31.7624 -3.00072 85.7802
lradius 31.647
lwrist 21.9244
lhand -19.9183 9.66319
lfingers 7.12502
lthumb 6.41871 39.5459
rfemur -47.0198 -2.80496 22.5744
rtibia 31.7417
rfoot 18.9075 -10.8841
rtoes 30.0332
lfemur -36.8625 5.29421 -24.7546
ltibia 56.5109
lfoot 19.2059 -8.39142
ltoes -13.0211
842
root 30.0486 17.7223 -6.53778 -644.697 -93.0198 665.272
lowerback 24.5189 -1.8753 3.45029
upperback 5.99532 -2.08356 -0.791854
thorax -7.14434 -1.22648 -2.19805
lowerneck 6.29187 1.65469 3.73962
upperneck -20.0111 2.16639 -1.55022
head -7.08632 0.732098 -1.27875
rclavicle -1.03368e-014 -2.24627e-014
rhumerus -29.1644 -3.12283 -88.5153
rradius 33.0056
rwrist 0.614248
rhand -21.7146 -9.28675
rfingers 7.12502
rthumb 4.68432 -39.215
lclavicle -1.03368e-014 -2.24627e-014
lhumerus -31.7867 -3.03613 85.815
lradius 31.6597
lwrist 21.9399
lhand -19.9125 9.63147
lfingers 7.12502
lthumb 6.42429 39.514
rfemur -47.2641 -2.73749 22.4489
rtibia 31.8022
rfoot 18.9698 -10.6985
rtoes 29.6204
lfemur -36.0222 5.36629 -24.9519
ltibia 55.7502
lfoot 19.4585 -8.6743
ltoes -12.7092
843
root 30.156 17.693 -6.53288 -643.844 -93.0792 664.254
lowerback 24.5667 -1.89276 3.40315
upperback 6.017 -2.11911 -0.799155
thorax -7.14587 -1.24352 -2.16743
lowerneck 6.30857 1.66347 3.72328
upperneck -19.9721 2.18788 -1.50226
head -7.07702 0.740897 -1.26201
rclavicle 5.86415e-015 1.12313e-014
rhumerus -29.1803 -3.16648 -88.5097
rradius 32.9618
rwrist 0.685654
rhand -21.6869 -9.2701
rfingers 7.12502
rthumb 4.71109 -39.1977
lclavicle 5.86415e-015 1.12313e-014
lhumerus -31.799 -3.07599 85.8465
lradius 31.6472
lwrist 21.9518
lhand -19.9015 9.60247
lfingers 7.12502
lthumb 6.43492 39.4847
rfemur -47.5038 -2.67959 22.335
rtibia 31.887
rfoot 18.9639 -10.4551
rtoes 29.127
lfemur -35.1712 5.41502 -25.1563
ltibia 54.8723
lfoot 19.7492 -8.94239
ltoes -12.3184
844
root 30.2641 17.662 -6.52794 -642.904 -93.1433 663.136
lowerback 24.6022 -1.9109 3.34762
upperback 6.04354 -2.1587 -0.81124
thorax -7.13598 -1.26228 -2.13635
lowerneck 6.32194 1.66876 3.70733
upperneck -19.911 2.20581 -1.45035
head -7.0601 0.748308 -1.24356
rclavicle -1.36167e-014 -2.90226e-014
rhumerus -29.2009 -3.19264 -88.5189
rradius 32.92
rwrist 0.747356
rhand -21.6572 -9.23986
rfingers 7.12502
rthumb 4.73973 -39.1668
lclavicle -1.36167e-014 -2.90226e-014
lhumerus -31.7892 -3.11514 85.8734
lradius 31.6151
lwrist 21.9552
lhand -19.8878 9.58486
lfingers 7.12502
lthumb 6.44817 39.4667
rfemur -47.7356 -2.62313 22.2304
rtibia 31.9895
rfoot 18.8804 -10.1793
rtoes 28.5845
lfemur -34.3219 5.45231 -25.3687
ltibia 53.8922
lfoot 20.0867 -9.19069
ltoes -11.8157
845
root 30.3733 17.6291 -6.52302 -641.781 -93.2118 661.826
lowerback 24.6222 -1.92979 3.2862
upperback 6.07632 -2.20196 -0.828192
thorax -7.11149 -1.28259 -2.10655
lowerneck 6.32503 1.66812 3.69025
upperneck -19.8255 2.21598 -1.39511
head -7.03378 0.752474 -1.22293
rclavicle -3.08116e-015 1.13307e-014
rhumerus -29.2233 -3.21061 -88.5401
rradius 32.8828
rwrist 0.79411
rhand -21.625 -9.20894
rfingers 7.12502
rthumb 4.77087 -39.1352
lclavicle -3.08116e-015 1.13307e-014
lhumerus -31.752 -3.15878 85.8983
lradius 31.5687
lwrist 21.945
lhand -19.8674 9.58482
lfingers 7.12502
lthumb 6.46785 39.4661
rfemur -47.9585 -2.55758 22.1243
rtibia 32.105
rfoot 18.7133 -9.91035
rtoes 28.0632
lfemur -33.4873 5.48651 -25.5935
ltibia 52.8312
lfoot 20.4908 -9.37953
ltoes -11.1472
846
root 30.4837 17.5947 -6.51831 -640.497 -93.283 660.345
lowerback 24.6325 -1.94854 3.22118
upperback 6.10971 -2.24657 -0.850346
thorax -7.08154 -1.30342 -2.08024
lowerneck 6.31441 1.65919 3.67414
upperneck -19.7079 2.21535 -1.33689
head -6.99498 0.75202 -1.20028
rclavicle 9.14409e-015 -6.81831e-014
rhumerus -29.2604 -3.22199 -88.5728
rradius 32.8562
rwrist 0.816993
rhand -21.5925 -9.18755
rfingers 7.12502
rthumb 4.8023 -39.1131
lclavicle 9.14409e-015 -6.81831e-014
lhumerus -31.6973 -3.2071 85.9194
lradius 31.5132
lwrist 21.9133
lhand -19.8379 9.60363
lfingers 7.12502
lthumb 6.49631 39.484
rfemur -48.1715 -2.46885 22.0099
rtibia 32.2293
rfoot 18.4558 -9.67326
rtoes 27.6097
lfemur -32.6757 5.52817 -25.833
ltibia 51.7101
lfoot 20.8975 -9.47264
ltoes -10.3969
